<svg width="30" height="30" fill="none" xmlns="http://www.w3.org/2000/svg"><rect width="30" height="30" rx="3" fill="#fff"/><path d="M19.54 19.922h-7.794c-.678 0-1.23-.552-1.23-1.23 0-.68.552-1.231 1.23-1.231h1.23l-.739.82h-.49a.41.41 0 0 0 0 .82h7.792v.82Z" fill="#F9C2D2"/><path d="M15.848 19.102h3.691v.82h-3.691v-.82Z" fill="#F98AAB"/><path opacity=".5" d="m10.963 12.54-.366-1.642H8v-.82h3.255l.71 3.182-1.002-.72Z" fill="#F98AAB"/><path d="m17.61 12.68-.123-.14h-6.522l1.273 5.741h7.21l1.445-5.594c-.28.07-1.942 1.534-3.283-.007Zm2.064 1.448-.226.872h-1.923l.104-1.251c.602.366 1.34.512 2.044.379ZM14.995 15l-.137-1.64h1.98L16.702 15h-1.707Zm1.638.82-.137 1.64H15.2l-.137-1.64h1.57Zm-2.598-2.46.137 1.64H12.35l-.364-1.64h2.049Zm-1.503 2.46h1.708l.137 1.64h-1.481l-.364-1.64Zm4.787 1.64.136-1.64h1.78l-.424 1.64H17.32Z" fill="#F9C2D2"/><path d="m17.609 12.68-.123-.14h-1.638v.82h.99L16.7 15h-.853v.82h.785l-.137 1.64h-.648v.821h3.598l1.446-5.594c-.28.07-1.942 1.534-3.283-.007Zm1.202 4.78H17.32l.136-1.64h1.78l-.424 1.64Zm.861-3.332-.225.872h-1.923l.104-1.251c.602.366 1.34.512 2.044.379Z" fill="#F98AAB"/><path d="M13.387 21.563a1.232 1.232 0 0 1 0-2.46c.678-.001 1.23.55 1.23 1.229 0 .678-.552 1.23-1.23 1.23Z" fill="#665151"/><path d="M17.488 21.563a1.232 1.232 0 0 1 0-2.46c.679-.001 1.23.55 1.23 1.229 0 .678-.551 1.23-1.23 1.23Z" fill="#4D3535"/><path d="M19.129 14.18a2.873 2.873 0 0 1-2.871-2.871 2.875 2.875 0 0 1 2.87-2.871A2.875 2.875 0 0 1 22 11.308a2.868 2.868 0 0 1-2.871 2.872Z" fill="#F9C2D2"/><path d="M13.387 20.742a.41.41 0 1 0 0-.82.41.41 0 0 0 0 .82Z" fill="#FFF7E6"/><path d="M17.488 20.742a.41.41 0 1 0 0-.82.41.41 0 0 0 0 .82Z" fill="#FFEACC"/><path d="M22 11.309a2.875 2.875 0 0 0-2.871-2.871v5.742A2.868 2.868 0 0 0 22 11.309Z" fill="#F98AAB"/><path d="M20.36 10.898h-.82v-.82h-.821v.82h-.82v.82h.82v.821h.82v-.82h.82v-.82Z" fill="#fff"/><path d="M19.129 10.078v2.461h.41v-.82h.82v-.82h-.82v-.82h-.41Z" fill="#fff"/></svg>