<svg width="30" height="30" fill="none" xmlns="http://www.w3.org/2000/svg"><rect width="30" height="30" rx="3" fill="#fff"/><path d="M9.156 13.552h2.422a.313.313 0 0 0 0-.625H9.156a.313.313 0 0 0 0 .625ZM9.156 15.717h2.422a.313.313 0 0 0 0-.625H9.156a.313.313 0 0 0 0 .625ZM12.159 20.955a.315.315 0 0 0-.408-.17.315.315 0 0 0-.17.41c.066.156.251.233.409.168a.315.315 0 0 0 .169-.408Z" fill="#F98AAB"/><path d="m22.916 16.119-3.717-3.99 1.138-1.136c.198-.195.307-.456.307-.734 0-.274-.106-.532-.3-.727a1.042 1.042 0 0 0-1.461-.011l-.003.003-1.56 1.556h-.584v-1.2a.313.313 0 0 0-.312-.312h-1.655v-.255a.313.313 0 0 0-.625 0v.255h-1.142v-.255a.313.313 0 0 0-.625 0v.255h-1.141v-.255a.313.313 0 0 0-.625 0v.255H9.469v-.255a.313.313 0 0 0-.625 0v.255H7.313A.313.313 0 0 0 7 9.88v11.194c0 .173.14.313.313.313h3.19a.313.313 0 0 0 0-.625H7.624v-10.57h1.22v.284a.313.313 0 0 0 .624 0v-.283h1.142v.283a.312.312 0 1 0 .625 0v-.283h1.141v.283a.312.312 0 1 0 .625 0v-.283h1.142v.283a.312.312 0 1 0 .625 0v-.283h1.342v.89a2.259 2.259 0 0 0-1.495.655l-2.3 2.3a.315.315 0 0 0 .051.483 2.127 2.127 0 0 0 1.16.341h.001l-.358.358a.312.312 0 0 0-.062.089l-1.003 1.506a.683.683 0 0 0-.114.44H9.157a.313.313 0 0 0 0 .626h3.52a.692.692 0 0 0 .382-.121l1.524-1.036a.328.328 0 0 0 .05-.04l.707-.706.771.77v4.014h-2.86a.312.312 0 1 0 0 .625h3.173c.172 0 .312-.14.312-.313v-3.716c.395.328.888.507 1.408.507h1.247c.26 0 .51.107.688.293l2.38 2.53c.19.202.541.063.541-.214v-4.142a.312.312 0 0 0-.084-.213Zm-7.858-3.94a1.625 1.625 0 0 1 1.145-.474h.49l-1.947 1.943c-.18.173-.351.342-.582.45-.34.157-.736.182-1.094.07l1.988-1.988Zm4.261-2.211a.415.415 0 0 1 .582.004.405.405 0 0 1-.004.578l-3.266 3.258-.157-.157a1.22 1.22 0 0 0-.535-.311l3.38-3.372Zm-6.611 7.275c-.027.018-.052.016-.075-.007-.035-.034-.017-.06-.008-.075l.817-1.227.482.482-1.216.827Zm1.705-1.223-.58-.58.596-.593c.056.203.167.389.316.538l.153.152-.485.483Zm7.962 3.666-1.842-1.958a1.586 1.586 0 0 0-1.142-.488h-1.247c-.422 0-.82-.164-1.118-.462l-1.84-1.836c-.265-.2-.206-.641 0-.85a.611.611 0 0 1 .846 0l1.495 1.496c.12.12.321.12.442 0a.313.313 0 0 0 0-.442l-.896-.896 1.683-1.68 3.619 3.885v3.231Z" fill="#F98AAB"/></svg>