<svg width="30" height="30" fill="none" xmlns="http://www.w3.org/2000/svg"><rect width="30" height="30" rx="3" fill="#fff"/><path d="M15.384 10.125c.871-.362 1.34-1.204 1.128-2.028-.212-.824-1.048-1.41-2.012-1.41s-1.8.586-2.012 1.41c-.212.824.257 1.666 1.128 2.028h1.768Z" fill="#F98AAB"/><path d="M12.162 10.813a.268.268 0 0 1-.2-.092c-1.142-1.278-1.204-3.256-.143-4.61a.268.268 0 0 1 .26-.107c.098.016.18.088.214.187.034.1.015.21-.05.29-.885 1.129-.833 2.777.12 3.842a.303.303 0 0 1 .052.314.275.275 0 0 1-.253.175ZM17.267 9.438a.324.324 0 0 1-.258-.118.205.205 0 0 1-.012-.24c.553-.869.41-1.921-.36-2.674a.21.21 0 0 1-.056-.244.296.296 0 0 1 .237-.159.343.343 0 0 1 .286.09c.925.904 1.096 2.167.433 3.211a.318.318 0 0 1-.27.133Z" fill="#F98AAB"/><path d="M20 13.865v4.434s0 1.51-.919 2.383a.547.547 0 0 0-.159.398v.86c0 .309-.241.559-.539.56h-4.31a.551.551 0 0 1-.54-.56v-.104a1.7 1.7 0 0 0-.481-1.193c-.52-.527-1.323-1.437-1.673-2.344-.54-1.4-1.617-3.362-2.156-3.922-.539-.56 0-1.12.539-1.12s1.617 1.12 2.155 1.96c.172.271.373.52.598.743.134.13.323.18.5.131a.546.546 0 0 0 .376-.367c.103-.345.15-.705.143-1.067V8.215a.83.83 0 0 1 .808-.84c.446 0 .808.376.808.84v3.361a.83.83 0 0 1 .809-.84c.446 0 .808.376.808.84v.84c0-.222.085-.436.237-.593a.76.76 0 0 1 .302-.196.722.722 0 0 1 .27-.05c.445 0 .807.376.807.84v1.4c0-.223.086-.436.237-.594a.763.763 0 0 1 .302-.196.754.754 0 0 1 .329-.047c.433.048.758.432.749.885Z" fill="#F98AAB"/><path d="M14.515 7.393a.77.77 0 0 0-.277.05.824.824 0 0 0-.556.782v6.383c.009.358-.041.715-.147 1.058a.564.564 0 0 1-.25.305.552.552 0 0 0 .805-.305c.106-.343.156-.7.148-1.058V8.225a.823.823 0 0 1 .555-.782.772.772 0 0 0-.278-.05ZM15.903 10.773a.823.823 0 0 0-.555.782v2.498a.278.278 0 0 0 .555 0v-2.498a.824.824 0 0 1 .555-.782.796.796 0 0 0-.555 0ZM17.571 11.606a.83.83 0 0 0-.555.782v1.665a.278.278 0 0 0 .555 0v-1.665a.824.824 0 0 1 .555-.782.796.796 0 0 0-.555 0ZM19.513 12.943a.77.77 0 0 0-.278.05.83.83 0 0 0-.555.783v.554a.277.277 0 1 0 .555 0v-.555a.824.824 0 0 1 .555-.782.77.77 0 0 0-.277-.05ZM18.969 15.625c-.19 0-.344.116-.344.258v1.547c0 .142.154.258.344.258.19 0 .343-.116.343-.258v-1.547c0-.142-.153-.258-.343-.258ZM19.09 18.375c-.123.003-.224.146-.234.331a.92.92 0 0 1-.161.453.469.469 0 0 0-.063.334c.021.12.084.214.163.246.08.031.165-.005.222-.094.174-.242.28-.575.296-.931 0-.186-.1-.336-.223-.339ZM14.958 21.125h-.229c-.126 0-.229.154-.229.344 0 .19.103.343.23.343h.228c.127 0 .23-.154.23-.343 0-.19-.103-.344-.23-.344ZM17.708 21.125h-1.604c-.126 0-.229.154-.229.344 0 .19.103.343.23.343h1.603c.127 0 .23-.154.23-.343 0-.19-.103-.344-.23-.344Z" fill="#F8EDF0"/></svg>